# xmcd
#
# Track frame offsets: 
#        150
#        16350
#        26051
#        39246
#        49774
#        61603
#        74610
#        86061
#        100698
#        113138
#        123827
#
# Disc length: 1938 seconds
#
# Revision: 4
# Processed by: cddbd v1.5.2PL0 Copyright (c) Steve Scherf et al.
# Submitted via: ExactAudioCopy v1.3
#
DISCID=8707900b
DTITLE=Waylon Jennings - A Man Called Hoss
DYEAR=1987
DGENRE=Country Rock
TTITLE0=Prologue
TTITLE1=Littlefield
TTITLE2=You'll Never Take Texas Out Of Me
TTITLE3=You Went Out With Rock 'N' Roll
TTITLE4=A Love Song (I Can't Sing Anymore)
TTITLE5=If Ole Hank Could Only See Us Now
TTITLE6=Rough And Rowdy Days
TTITLE7=I'm Living Proof (There's Life After You)
TTITLE8=You Deserve The Stars In My Crown
TTITLE9=Turn It All Around
TTITLE10=Where Do We Go From Here
EXTD=
EXTT0=
EXTT1=
EXTT2=
EXTT3=
EXTT4=
EXTT5=
EXTT6=
EXTT7=
EXTT8=
EXTT9=
EXTT10=
PLAYORDER=
